<svg width="117" height="30" viewBox="0 0 117 30" fill="none" xmlns="http://www.w3.org/2000/svg">
<g clip-path="url(#clip0_11_3)">
<path d="M28.4528 1.6521L29.5502 1.88631C29.6091 1.8989 29.6576 1.94504 29.6746 2.00727C29.6832 2.03749 29.6839 2.06964 29.6768 2.1003C29.6696 2.13095 29.6548 2.15896 29.634 2.18136L28.735 3.14199C28.6273 3.25637 28.4816 3.3207 28.3297 3.32098H27.5839L25.7113 5.32125C25.747 5.46529 25.7536 5.61581 25.7306 5.76277C25.7076 5.90974 25.6555 6.04978 25.5778 6.17356C25.5001 6.29734 25.3986 6.40203 25.2801 6.48064C25.1615 6.55925 25.0286 6.60999 24.8903 6.62947C24.7519 6.64895 24.6113 6.63673 24.4777 6.59361C24.3441 6.5505 24.2207 6.47749 24.1156 6.37944C24.0105 6.28139 23.9262 6.16055 23.8683 6.02499C23.8104 5.88942 23.7802 5.74223 23.7798 5.59322C23.7797 5.43229 23.8144 5.27352 23.881 5.12918C23.9477 4.98485 24.0446 4.85883 24.1641 4.76088C24.2837 4.66294 24.4228 4.59569 24.5706 4.56435C24.7184 4.53301 24.871 4.53841 25.0166 4.58015L26.8899 2.57917V1.78424C26.8899 1.62203 26.9501 1.46612 27.0575 1.35146L27.9571 0.390827C27.9781 0.368544 28.0043 0.352747 28.033 0.345114C28.0618 0.337481 28.0919 0.338299 28.1202 0.34748C28.1784 0.365658 28.2217 0.417395 28.2334 0.480319L28.4528 1.6521Z" fill="black"/>
<path d="M20.8333 5.59322C20.834 6.19306 20.9551 6.78578 21.1886 7.33138C21.422 7.87698 21.7623 8.36278 22.1865 8.75601C22.6108 9.14924 23.109 9.44074 23.6477 9.61086C24.1864 9.78099 24.753 9.82577 25.3093 9.74219C25.8656 9.65861 26.3986 9.44861 26.8724 9.12636C27.3462 8.80411 27.7498 8.3771 28.0559 7.87415C28.362 7.37119 28.5636 6.80398 28.647 6.21077C28.7303 5.61757 28.6936 5.01217 28.5392 4.43542C28.5175 4.36804 28.5089 4.29665 28.5139 4.2256C28.5189 4.15456 28.5374 4.08534 28.5682 4.02216C28.5991 3.95898 28.6416 3.90317 28.6933 3.85811C28.745 3.81306 28.8047 3.77971 28.8689 3.76009C28.933 3.74048 29.0002 3.735 29.0664 3.74401C29.1326 3.75301 29.1964 3.77631 29.2539 3.81247C29.3114 3.84864 29.3614 3.89692 29.4008 3.95437C29.4403 4.01183 29.4684 4.07725 29.4834 4.14667C29.7823 5.26359 29.7255 6.45486 29.322 7.5336C28.9184 8.61234 28.1909 9.5175 27.2535 10.1071C26.3162 10.6967 25.2221 10.9373 24.1429 10.7913C23.0636 10.6452 22.0603 10.1207 21.2904 9.30012C20.5212 8.47817 20.0295 7.40674 19.8924 6.25407C19.7554 5.10139 19.9806 3.93274 20.5329 2.93159C21.0852 1.93045 21.9333 1.1535 22.9439 0.722739C23.9545 0.291975 25.0705 0.231788 26.1166 0.551628C26.2412 0.590509 26.3463 0.680459 26.4089 0.801821C26.4715 0.923183 26.4866 1.06609 26.4509 1.19931C26.4152 1.33252 26.3315 1.44522 26.2182 1.51277C26.1049 1.58032 25.9711 1.59723 25.8462 1.55981C25.2612 1.38044 24.6452 1.34865 24.0467 1.46696C23.4483 1.58526 22.8838 1.85043 22.3977 2.24153C21.9116 2.63263 21.5173 3.13898 21.2458 3.72063C20.9743 4.30228 20.8331 4.94333 20.8333 5.59322Z" fill="#6C2BD9"/>
<path d="M22.7976 5.59321C22.7976 5.97536 22.8954 6.35025 23.0803 6.67743C23.2652 7.00462 23.5303 7.27169 23.8469 7.44983C24.1635 7.62798 24.5197 7.71044 24.877 7.68832C25.2343 7.6662 25.5791 7.54034 25.8743 7.32431C26.1695 7.10774 26.4036 6.80913 26.5513 6.46076C26.699 6.1124 26.7547 5.72754 26.7124 5.34781C26.701 5.25566 26.7128 5.16192 26.7465 5.07624C26.7803 4.99056 26.8348 4.91604 26.9045 4.86035C26.9742 4.80465 27.0565 4.7698 27.143 4.75938C27.2296 4.74897 27.3171 4.76336 27.3967 4.80107C27.4762 4.8383 27.5451 4.89738 27.5963 4.9723C27.6475 5.04723 27.6791 5.1353 27.688 5.22755C27.7592 5.87644 27.6394 6.53288 27.3453 7.10576C27.0512 7.67864 26.5973 8.13955 26.0468 8.42452C25.4962 8.70948 24.8762 8.80436 24.2729 8.696C23.6695 8.58763 23.1127 8.28139 22.6797 7.81977C22.2468 7.35816 21.9591 6.76408 21.8567 6.11998C21.7543 5.47588 21.8422 4.81371 22.1083 4.22539C22.3743 3.63706 22.8053 3.15176 23.3413 2.83685C23.8774 2.52193 24.492 2.39302 25.0998 2.468C25.1648 2.47445 25.2281 2.4947 25.2857 2.52758C25.3434 2.56045 25.3943 2.60529 25.4355 2.65945C25.4767 2.71362 25.5074 2.77602 25.5257 2.84301C25.5441 2.91 25.5497 2.98022 25.5423 3.04956C25.5349 3.1189 25.5146 3.18597 25.4826 3.24682C25.4506 3.30768 25.4075 3.3611 25.356 3.40396C25.3044 3.44682 25.2453 3.47825 25.1822 3.49642C25.1191 3.51458 25.0532 3.51911 24.9884 3.50974C24.7132 3.47561 24.4343 3.50405 24.1701 3.59318C23.9059 3.68231 23.6624 3.83011 23.4555 4.02688C23.2486 4.22365 23.083 4.46494 22.9696 4.73489C22.8562 5.00484 22.7976 5.29735 22.7976 5.59321Z" fill="#6C2BD9"/>
</g>
<path d="M8.23641 4.57626C7.89752 4.57626 7.54507 4.72858 7.1994 5.03984C6.77918 5.42394 6.41995 6.03983 6.26406 6.78155C6.10817 7.52989 6.19629 8.2385 6.43351 8.74843C6.67073 9.26499 7.0164 9.563 7.42307 9.64247C7.82974 9.72856 8.26352 9.58286 8.69053 9.20538C9.10397 8.82128 9.46997 8.20539 9.62586 7.45705C9.77498 6.7087 9.68686 6.0001 9.45642 5.49017C9.21919 4.97361 8.87353 4.68222 8.46686 4.59613C8.3923 4.58289 8.31097 4.57626 8.23641 4.57626ZM5.63373 9.77492C5.40328 9.85439 5.16606 9.94048 4.9085 10.0464C3.22421 11.0862 2.04826 12.1127 0.85265 13.7352C0.0942116 14.7617 0.0569337 16.5166 0 17.808L1.40979 18.4173C1.46875 16.5762 1.43419 15.8146 2.3092 14.755C2.97546 13.9471 3.61936 13.0994 4.85428 12.8411C4.96272 14.755 4.67805 17.7219 3.90538 20.7616C5.29484 20.9471 6.45384 20.7153 7.76874 20.3444C11.2051 18.6689 12.7911 20.0928 15.1769 23.3709L16.5664 21.2451C14.899 19.3312 13.2791 16.2716 8.62275 17.4504C8.96164 15.6424 9.0023 14.4438 9.20564 12.6425C9.24631 11.8478 9.25986 11.0597 9.2802 10.2782C8.67697 10.7286 7.93141 10.967 7.17907 10.8146C6.53518 10.6822 6.00651 10.2915 5.63373 9.77492ZM15.4073 10.2584C14.1738 11.4372 13.9027 12.3113 12.0049 12.8014L10.4799 11.212C10.4528 12.0597 10.4256 12.9272 10.3511 13.808C10.995 14.3842 11.6524 14.8477 11.8897 14.7749C14.0111 14.1524 14.6211 13.4305 16.0512 12.0001L15.4073 10.2584ZM24.7133 11.9934V18.351H18.2066V24.7086H11.6999V29.8808C18.6336 29.894 23.0731 29.9536 30 30V11.9934H24.7133ZM6.5284 21.8543C5.60661 22.0199 4.64416 22.0729 3.58411 21.9139C2.84601 24.3974 1.77037 26.8344 0.296191 28.702L2.91446 29.7152C4.74583 27.2053 5.41006 25.0398 6.5284 21.8543Z" fill="#6C2BD9"/>
<path d="M39.5227 20L36.3409 8.36364H37.7727L40.2045 17.8409H40.3182L42.7955 8.36364H44.3864L46.8636 17.8409H46.9773L49.4091 8.36364H50.8409L47.6591 20H46.2045L43.6364 10.7273H43.5455L40.9773 20H39.5227ZM55.2614 20.1818C54.4205 20.1818 53.6951 19.9962 53.0852 19.625C52.4792 19.25 52.0114 18.7273 51.6818 18.0568C51.3561 17.3826 51.1932 16.5985 51.1932 15.7045C51.1932 14.8106 51.3561 14.0227 51.6818 13.3409C52.0114 12.6553 52.4697 12.1212 53.0568 11.7386C53.6477 11.3523 54.3371 11.1591 55.125 11.1591C55.5795 11.1591 56.0284 11.2348 56.4716 11.3864C56.9148 11.5379 57.3182 11.7841 57.6818 12.125C58.0455 12.4621 58.3352 12.9091 58.5511 13.4659C58.767 14.0227 58.875 14.7083 58.875 15.5227V16.0909H52.1477V14.9318H57.5114C57.5114 14.4394 57.4129 14 57.2159 13.6136C57.0227 13.2273 56.7462 12.9223 56.3864 12.6989C56.0303 12.4754 55.6098 12.3636 55.125 12.3636C54.5909 12.3636 54.1288 12.4962 53.7386 12.7614C53.3523 13.0227 53.0549 13.3636 52.8466 13.7841C52.6383 14.2045 52.5341 14.6553 52.5341 15.1364V15.9091C52.5341 16.5682 52.6477 17.1269 52.875 17.5852C53.1061 18.0398 53.4261 18.3864 53.8352 18.625C54.2443 18.8598 54.7197 18.9773 55.2614 18.9773C55.6136 18.9773 55.9318 18.928 56.2159 18.8295C56.5038 18.7273 56.7519 18.5758 56.9602 18.375C57.1686 18.1705 57.3295 17.9167 57.4432 17.6136L58.7386 17.9773C58.6023 18.4167 58.3731 18.803 58.0511 19.1364C57.7292 19.4659 57.3314 19.7235 56.858 19.9091C56.3845 20.0909 55.8523 20.1818 55.2614 20.1818ZM61.0966 20V8.36364H62.4375V12.6591H62.5511C62.6496 12.5076 62.786 12.3144 62.9602 12.0795C63.1383 11.8409 63.392 11.6288 63.7216 11.4432C64.0549 11.2538 64.5057 11.1591 65.0739 11.1591C65.8087 11.1591 66.4564 11.3428 67.017 11.7102C67.5777 12.0777 68.0152 12.5985 68.3295 13.2727C68.6439 13.947 68.8011 14.7424 68.8011 15.6591C68.8011 16.5833 68.6439 17.3845 68.3295 18.0625C68.0152 18.7367 67.5795 19.2595 67.0227 19.6307C66.4659 19.9981 65.8239 20.1818 65.0966 20.1818C64.536 20.1818 64.0871 20.089 63.75 19.9034C63.4129 19.714 63.1534 19.5 62.9716 19.2614C62.7898 19.0189 62.6496 18.8182 62.5511 18.6591H62.392V20H61.0966ZM62.4148 15.6364C62.4148 16.2955 62.5114 16.8769 62.7045 17.3807C62.8977 17.8807 63.1799 18.2727 63.5511 18.5568C63.9223 18.8371 64.3769 18.9773 64.9148 18.9773C65.4754 18.9773 65.9432 18.8295 66.3182 18.5341C66.697 18.2348 66.9811 17.8333 67.1705 17.3295C67.3636 16.822 67.4602 16.2576 67.4602 15.6364C67.4602 15.0227 67.3655 14.4697 67.1761 13.9773C66.9905 13.4811 66.7083 13.089 66.3295 12.8011C65.9545 12.5095 65.483 12.3636 64.9148 12.3636C64.3693 12.3636 63.911 12.5019 63.5398 12.7784C63.1686 13.0511 62.8883 13.4337 62.6989 13.9261C62.5095 14.4148 62.4148 14.9848 62.4148 15.6364ZM71.0341 8.36364H72.7159L76.6705 18.0227H76.8068L80.7614 8.36364H82.4432V20H81.125V11.1591H81.0114L77.375 20H76.1023L72.4659 11.1591H72.3523V20H71.0341V8.36364ZM88.7457 20.1818C87.9048 20.1818 87.1795 19.9962 86.5696 19.625C85.9635 19.25 85.4957 18.7273 85.1662 18.0568C84.8404 17.3826 84.6776 16.5985 84.6776 15.7045C84.6776 14.8106 84.8404 14.0227 85.1662 13.3409C85.4957 12.6553 85.9541 12.1212 86.5412 11.7386C87.1321 11.3523 87.8215 11.1591 88.6094 11.1591C89.0639 11.1591 89.5128 11.2348 89.956 11.3864C90.3991 11.5379 90.8026 11.7841 91.1662 12.125C91.5298 12.4621 91.8196 12.9091 92.0355 13.4659C92.2514 14.0227 92.3594 14.7083 92.3594 15.5227V16.0909H85.6321V14.9318H90.9957C90.9957 14.4394 90.8973 14 90.7003 13.6136C90.5071 13.2273 90.2306 12.9223 89.8707 12.6989C89.5147 12.4754 89.0942 12.3636 88.6094 12.3636C88.0753 12.3636 87.6132 12.4962 87.223 12.7614C86.8366 13.0227 86.5393 13.3636 86.331 13.7841C86.1226 14.2045 86.0185 14.6553 86.0185 15.1364V15.9091C86.0185 16.5682 86.1321 17.1269 86.3594 17.5852C86.5904 18.0398 86.9105 18.3864 87.3196 18.625C87.7287 18.8598 88.2041 18.9773 88.7457 18.9773C89.098 18.9773 89.4162 18.928 89.7003 18.8295C89.9882 18.7273 90.2363 18.5758 90.4446 18.375C90.6529 18.1705 90.8139 17.9167 90.9276 17.6136L92.223 17.9773C92.0866 18.4167 91.8575 18.803 91.5355 19.1364C91.2135 19.4659 90.8158 19.7235 90.3423 19.9091C89.8688 20.0909 89.3366 20.1818 88.7457 20.1818ZM98.1946 11.2727V12.4091H93.6719V11.2727H98.1946ZM94.9901 9.18182H96.331V17.5C96.331 17.8788 96.3859 18.1629 96.4957 18.3523C96.6094 18.5379 96.7533 18.6629 96.9276 18.7273C97.1056 18.7879 97.2931 18.8182 97.4901 18.8182C97.6378 18.8182 97.759 18.8106 97.8537 18.7955C97.9484 18.7765 98.0241 18.7614 98.081 18.75L98.3537 19.9545C98.2628 19.9886 98.1359 20.0227 97.973 20.0568C97.8101 20.0947 97.6037 20.1136 97.3537 20.1136C96.9749 20.1136 96.6037 20.0322 96.2401 19.8693C95.8802 19.7064 95.581 19.4583 95.3423 19.125C95.1075 18.7917 94.9901 18.3712 94.9901 17.8636V9.18182ZM102.78 20.2045C102.227 20.2045 101.725 20.1004 101.274 19.892C100.823 19.6799 100.465 19.375 100.2 18.9773C99.9351 18.5758 99.8026 18.0909 99.8026 17.5227C99.8026 17.0227 99.901 16.6174 100.098 16.3068C100.295 15.9924 100.558 15.7462 100.888 15.5682C101.217 15.3902 101.581 15.2576 101.979 15.1705C102.38 15.0795 102.784 15.0076 103.189 14.9545C103.719 14.8864 104.149 14.8352 104.479 14.8011C104.812 14.7633 105.054 14.7008 105.206 14.6136C105.361 14.5265 105.439 14.375 105.439 14.1591V14.1136C105.439 13.553 105.286 13.1174 104.979 12.8068C104.676 12.4962 104.215 12.3409 103.598 12.3409C102.958 12.3409 102.456 12.4811 102.092 12.7614C101.729 13.0417 101.473 13.3409 101.325 13.6591L100.053 13.2045C100.28 12.6742 100.583 12.2614 100.962 11.9659C101.344 11.6667 101.761 11.4583 102.212 11.3409C102.666 11.2197 103.113 11.1591 103.553 11.1591C103.833 11.1591 104.155 11.1932 104.518 11.2614C104.886 11.3258 105.24 11.4602 105.581 11.6648C105.926 11.8693 106.212 12.178 106.439 12.5909C106.666 13.0038 106.78 13.5568 106.78 14.25V20H105.439V18.8182H105.371C105.28 19.0076 105.128 19.2102 104.916 19.4261C104.704 19.642 104.422 19.8258 104.07 19.9773C103.717 20.1288 103.287 20.2045 102.78 20.2045ZM102.984 19C103.515 19 103.962 18.8958 104.325 18.6875C104.693 18.4792 104.969 18.2102 105.155 17.8807C105.344 17.5511 105.439 17.2045 105.439 16.8409V15.6136C105.382 15.6818 105.257 15.7443 105.064 15.8011C104.875 15.8542 104.655 15.9015 104.405 15.9432C104.159 15.9811 103.918 16.0152 103.683 16.0455C103.452 16.072 103.265 16.0947 103.121 16.1136C102.772 16.1591 102.446 16.233 102.143 16.3352C101.844 16.4337 101.602 16.5833 101.416 16.7841C101.234 16.9811 101.143 17.25 101.143 17.5909C101.143 18.0568 101.316 18.4091 101.661 18.6477C102.009 18.8826 102.45 19 102.984 19ZM115.409 13.2273L114.205 13.5682C114.129 13.3674 114.017 13.1723 113.869 12.983C113.725 12.7898 113.528 12.6307 113.278 12.5057C113.028 12.3807 112.708 12.3182 112.318 12.3182C111.784 12.3182 111.339 12.4413 110.983 12.6875C110.631 12.9299 110.455 13.2386 110.455 13.6136C110.455 13.947 110.576 14.2102 110.818 14.4034C111.061 14.5966 111.439 14.7576 111.955 14.8864L113.25 15.2045C114.03 15.3939 114.612 15.6837 114.994 16.0739C115.377 16.4602 115.568 16.9583 115.568 17.5682C115.568 18.0682 115.424 18.5152 115.136 18.9091C114.852 19.303 114.455 19.6136 113.943 19.8409C113.432 20.0682 112.837 20.1818 112.159 20.1818C111.269 20.1818 110.532 19.9886 109.949 19.6023C109.366 19.2159 108.996 18.6515 108.841 17.9091L110.114 17.5909C110.235 18.0606 110.464 18.4129 110.801 18.6477C111.142 18.8826 111.587 19 112.136 19C112.761 19 113.258 18.8674 113.625 18.6023C113.996 18.3333 114.182 18.0114 114.182 17.6364C114.182 17.3333 114.076 17.0795 113.864 16.875C113.652 16.6667 113.326 16.5114 112.886 16.4091L111.432 16.0682C110.633 15.8788 110.045 15.5852 109.67 15.1875C109.299 14.786 109.114 14.2841 109.114 13.6818C109.114 13.1894 109.252 12.7538 109.528 12.375C109.809 11.9962 110.189 11.6989 110.67 11.483C111.155 11.267 111.705 11.1591 112.318 11.1591C113.182 11.1591 113.86 11.3485 114.352 11.7273C114.848 12.1061 115.201 12.6061 115.409 13.2273Z" fill="white"/>
<defs>
<clipPath id="clip0_11_3">
<rect width="10.4762" height="11.1864" fill="white" transform="translate(19.5238)"/>
</clipPath>
</defs>
</svg>
